<svg width="45" height="45" viewBox="0 0 45 45" fill="none" xmlns="http://www.w3.org/2000/svg">
<circle cx="22.5" cy="22.5" r="22.5" fill="#F51E38" fill-opacity="0.3"/>
<circle cx="23" cy="23" r="18" fill="#F51E38" fill-opacity="0.3"/>
<path fill-rule="evenodd" clip-rule="evenodd" d="M21.3333 29.3333H20.7778C20.471 29.3333 20.2222 29.0846 20.2222 28.7778C20.2222 28.471 20.471 28.2222 20.7778 28.2222V17.1111H19.1111V28.7778C19.1111 29.0846 18.8624 29.3333 18.5556 29.3333C18.2487 29.3333 18 29.0846 18 28.7778V16.5556C18 16.2487 18.2487 16 18.5556 16H21.3333C21.6402 16 21.8889 16.2487 21.8889 16.5556V28.7778C21.8889 29.0846 21.6402 29.3333 21.3333 29.3333ZM28 28.7778V16.5556C28 16.2487 27.7513 16 27.4444 16C27.1376 16 26.8889 16.2487 26.8889 16.5556V28.2222H25.2222V17.1111C25.529 17.1111 25.7778 16.8624 25.7778 16.5556C25.7778 16.2487 25.529 16 25.2222 16H24.6667C24.3598 16 24.1111 16.2487 24.1111 16.5556V28.7778C24.1111 29.0846 24.3598 29.3333 24.6667 29.3333H27.4444C27.7513 29.3333 28 29.0846 28 28.7778Z" fill="white"/>
</svg>
